<svg xmlns="http://www.w3.org/2000/svg" xmlns:xlink="http://www.w3.org/1999/xlink" width="91.314" height="91.315" viewBox="0 0 91.314 91.315"><defs><filter id="a" x="0" y="0" width="43.303" height="43.303" filterUnits="userSpaceOnUse"><feOffset input="SourceAlpha"/><feGaussianBlur stdDeviation="5" result="b"/><feFlood flood-opacity="0.604"/><feComposite operator="in" in2="b"/><feComposite in="SourceGraphic"/></filter><filter id="c" x="48.011" y="48.012" width="43.303" height="43.303" filterUnits="userSpaceOnUse"><feOffset input="SourceAlpha"/><feGaussianBlur stdDeviation="5" result="d"/><feFlood flood-opacity="0.604"/><feComposite operator="in" in2="d"/><feComposite in="SourceGraphic"/></filter><filter id="e" x="48.012" y="0" width="43.303" height="43.687" filterUnits="userSpaceOnUse"><feOffset input="SourceAlpha"/><feGaussianBlur stdDeviation="5" result="f"/><feFlood flood-opacity="0.604"/><feComposite operator="in" in2="f"/><feComposite in="SourceGraphic"/></filter><filter id="g" x="0" y="48.012" width="43.303" height="43.303" filterUnits="userSpaceOnUse"><feOffset input="SourceAlpha"/><feGaussianBlur stdDeviation="5" result="h"/><feFlood flood-opacity="0.604"/><feComposite operator="in" in2="h"/><feComposite in="SourceGraphic"/></filter></defs><g transform="translate(-167.398 -62.798)"><g transform="matrix(1, 0, 0, 1, 167.4, 62.8)" filter="url(#a)"><path d="M10.8,10.8H0V0" transform="translate(28.3 17.5) rotate(90)" fill="none" stroke="#fff" stroke-width="5"/></g><g transform="matrix(1, 0, 0, 1, 167.4, 62.8)" filter="url(#c)"><path d="M10.8,10.8H0V0" transform="translate(63.01 73.82) rotate(-90)" fill="none" stroke="#fff" stroke-width="5"/></g><g transform="matrix(1, 0, 0, 1, 167.4, 62.8)" filter="url(#e)"><path d="M10.8,11.187H0V0" transform="translate(73.81 28.69) rotate(180)" fill="none" stroke="#3b974e" stroke-width="5"/></g><g transform="matrix(1, 0, 0, 1, 167.4, 62.8)" filter="url(#g)"><path d="M10.8,9.8H0V-1" transform="translate(17.5 64.01)" fill="none" stroke="#3b974e" stroke-width="5"/></g></g></svg>